<svg xmlns="http://www.w3.org/2000/svg" viewBox="0 0 40 40"><defs><style>.cls-1{fill:#131313;}</style></defs><title>Zasób 3</title><g id="Warstwa_2" data-name="Warstwa 2"><g id="Warstwa_3" data-name="Warstwa 3"><path class="cls-1" d="M26.43,18.32a2,2,0,0,0-1.46.53,2.55,2.55,0,0,0-.65,1.45h4.22a2,2,0,0,0-.65-1.48A2.15,2.15,0,0,0,26.43,18.32Z"/><path class="cls-1" d="M17.62,17.92a1.2,1.2,0,0,0,.52-1.11,1.13,1.13,0,0,0-.68-1.17,4.75,4.75,0,0,0-1.5-.2H13.2v2.79h3.08A2.54,2.54,0,0,0,17.62,17.92Z"/><path class="cls-1" d="M20,0A20,20,0,1,0,40,20,20,20,0,0,0,20,0Zm3.51,14H29v1.28H23.51Zm-3,10.14a3.51,3.51,0,0,1-.9,1,3.47,3.47,0,0,1-1.43.64,8.76,8.76,0,0,1-1.79.17H10.68V13.24H16.8a3.89,3.89,0,0,1,3.28,1.35,3.22,3.22,0,0,1,.58,1.93,2.82,2.82,0,0,1-.59,1.87,3,3,0,0,1-1,.72,2.82,2.82,0,0,1,1.46,1.12,3.36,3.36,0,0,1,.49,1.86A3.71,3.71,0,0,1,20.51,24.11Zm10.57-2.19H24.25a2.25,2.25,0,0,0,1,2,2.48,2.48,0,0,0,1.35.35,2.07,2.07,0,0,0,1.36-.43,2,2,0,0,0,.5-.64h2.5A3.06,3.06,0,0,1,30,24.87a4.55,4.55,0,0,1-3.52,1.37,5.11,5.11,0,0,1-3.3-1.15,4.54,4.54,0,0,1-1.43-3.75,5.07,5.07,0,0,1,1.29-3.73,4.52,4.52,0,0,1,3.35-1.3,5.33,5.33,0,0,1,2.2.44,3.8,3.8,0,0,1,1.62,1.39A4.6,4.6,0,0,1,31,20.06,12.06,12.06,0,0,1,31.08,21.92Z"/><path class="cls-1" d="M17.59,20.55a3.2,3.2,0,0,0-1.27-.21H13.2v3.38h3.08a3,3,0,0,0,1.28-.22,1.6,1.6,0,0,0,.83-1.58A1.36,1.36,0,0,0,17.59,20.55Z"/></g></g></svg>