<svg xmlns="http://www.w3.org/2000/svg" viewBox="0 0 40 40"><defs><style>.cls-1{fill:#131313;}</style></defs><title>Zasób 4</title><g id="Warstwa_2" data-name="Warstwa 2"><g id="Warstwa_3" data-name="Warstwa 3"><path class="cls-1" d="M20,0A20,20,0,1,0,40,20,20,20,0,0,0,20,0ZM15.62,28.59H11.87V16.49h3.75ZM13.73,14.91a2.23,2.23,0,1,1,2.21-2.23A2.22,2.22,0,0,1,13.73,14.91ZM29.65,28.59H25.93V22.24c0-1.74-.66-2.71-2-2.71s-2.28,1-2.28,2.71v6.35H18V16.49H21.6v1.63a4.22,4.22,0,0,1,3.65-2c2.57,0,4.4,1.57,4.4,4.81Z"/></g></g></svg>